<?xml version="1.0" encoding="utf-8"?>
<svg xmlns="http://www.w3.org/2000/svg" width="512" height="512" viewBox="0 0 512 512" xmlns:bx="https://boxy-svg.com">
  <defs>
    <linearGradient gradientUnits="userSpaceOnUse" bx:pinned="true" id="color-1">
      <stop style="stop-color: rgb(19, 52, 117);"/>
    </linearGradient>
    <linearGradient gradientUnits="userSpaceOnUse" bx:pinned="true" id="color-3">
      <stop style="stop-color: #eaeaea;"/>
    </linearGradient>
    <linearGradient bx:pinned="true" id="color-0">
      <stop style="stop-color: #bdc3c7;" offset="0"/>
      <stop style="stop-color: #2c3e50;" offset="1"/>
    </linearGradient>
  </defs>
  <g transform="matrix(0.456492, 0.12535, 0.056334, 0.302559, -249.07848, -266.104954)" style="transform-origin: 511.5px 509.5px;">
    <path d="M 477 0 L 476 1 L 464 1 L 463 2 L 452 2 L 451 3 L 444 3 L 443 4 L 436 4 L 435 5 L 430 5 L 429 6 L 424 6 L 423 7 L 418 7 L 417 8 L 413 8 L 412 9 L 408 9 L 407 10 L 403 10 L 402 11 L 398 11 L 397 12 L 394 12 L 393 13 L 390 13 L 389 14 L 386 14 L 385 15 L 382 15 L 381 16 L 378 16 L 377 17 L 374 17 L 373 18 L 371 18 L 370 19 L 368 19 L 367 20 L 364 20 L 363 21 L 361 21 L 360 22 L 357 22 L 356 23 L 354 23 L 353 24 L 351 24 L 350 25 L 348 25 L 347 26 L 345 26 L 344 27 L 342 27 L 341 28 L 339 28 L 338 29 L 337 29 L 336 30 L 334 30 L 333 31 L 331 31 L 330 32 L 328 32 L 327 33 L 326 33 L 325 34 L 323 34 L 322 35 L 321 35 L 320 36 L 318 36 L 317 37 L 316 37 L 315 38 L 313 38 L 312 39 L 311 39 L 310 40 L 309 40 L 308 41 L 306 41 L 305 42 L 304 42 L 303 43 L 302 43 L 301 44 L 299 44 L 298 45 L 297 45 L 296 46 L 295 46 L 294 47 L 293 47 L 292 48 L 291 48 L 290 49 L 289 49 L 288 50 L 287 50 L 286 51 L 285 51 L 284 52 L 283 52 L 282 53 L 281 53 L 280 54 L 279 54 L 278 55 L 277 55 L 276 56 L 275 56 L 274 57 L 273 57 L 272 58 L 271 58 L 270 59 L 269 59 L 268 60 L 267 60 L 266 61 L 265 61 L 263 63 L 262 63 L 261 64 L 260 64 L 259 65 L 258 65 L 257 66 L 256 66 L 254 68 L 253 68 L 252 69 L 251 69 L 249 71 L 248 71 L 247 72 L 246 72 L 244 74 L 243 74 L 242 75 L 241 75 L 239 77 L 238 77 L 236 79 L 235 79 L 234 80 L 233 80 L 231 82 L 230 82 L 228 84 L 227 84 L 225 86 L 224 86 L 222 88 L 221 88 L 219 90 L 218 90 L 215 93 L 214 93 L 212 95 L 211 95 L 208 98 L 207 98 L 205 100 L 204 100 L 201 103 L 200 103 L 197 106 L 196 106 L 192 110 L 191 110 L 187 114 L 186 114 L 181 119 L 180 119 L 175 124 L 174 124 L 166 132 L 165 132 L 153 144 L 152 144 L 152 145 L 145 152 L 144 152 L 144 153 L 132 165 L 132 166 L 125 173 L 125 174 L 119 180 L 119 181 L 114 186 L 114 187 L 110 191 L 110 192 L 107 195 L 107 196 L 104 199 L 104 200 L 101 203 L 101 204 L 98 207 L 98 208 L 96 210 L 96 211 L 93 214 L 93 215 L 91 217 L 91 218 L 89 220 L 89 221 L 86 224 L 86 225 L 84 227 L 84 228 L 82 230 L 82 231 L 80 233 L 80 234 L 79 235 L 79 236 L 77 238 L 77 239 L 76 240 L 76 241 L 74 243 L 74 244 L 72 246 L 72 247 L 71 248 L 71 249 L 69 251 L 69 252 L 68 253 L 68 254 L 67 255 L 67 256 L 65 258 L 65 259 L 64 260 L 64 261 L 63 262 L 63 263 L 61 265 L 61 266 L 60 267 L 60 268 L 59 269 L 59 270 L 58 271 L 58 272 L 57 273 L 57 274 L 55 276 L 55 277 L 54 278 L 54 279 L 53 280 L 53 281 L 52 282 L 52 283 L 51 284 L 51 285 L 50 286 L 50 287 L 49 288 L 49 289 L 48 290 L 48 292 L 47 293 L 47 294 L 46 295 L 46 296 L 45 297 L 45 298 L 44 299 L 44 300 L 43 301 L 43 303 L 42 304 L 42 305 L 41 306 L 41 307 L 40 308 L 40 310 L 39 311 L 39 312 L 38 313 L 38 315 L 37 316 L 37 317 L 36 318 L 36 319 L 35 320 L 35 322 L 34 323 L 34 325 L 33 326 L 33 327 L 32 328 L 32 330 L 31 331 L 31 333 L 30 334 L 30 336 L 29 337 L 29 338 L 28 339 L 28 342 L 27 343 L 27 344 L 26 345 L 26 347 L 25 348 L 25 351 L 24 352 L 24 354 L 23 355 L 23 357 L 22 358 L 22 360 L 21 361 L 21 364 L 20 365 L 20 367 L 19 368 L 19 371 L 18 372 L 18 374 L 17 375 L 17 378 L 16 379 L 16 382 L 15 383 L 15 386 L 14 387 L 14 391 L 13 392 L 13 395 L 12 396 L 12 399 L 11 400 L 11 404 L 10 405 L 10 409 L 9 410 L 9 414 L 8 415 L 8 419 L 7 420 L 7 425 L 6 426 L 6 432 L 5 433 L 5 438 L 4 439 L 4 446 L 3 447 L 3 454 L 2 455 L 2 464 L 1 465 L 1 474 L 0 475 L 0 538 L 1 539 L 1 552 L 2 553 L 2 562 L 3 563 L 3 571 L 4 572 L 4 579 L 5 580 L 5 586 L 6 587 L 6 592 L 7 593 L 7 599 L 8 600 L 8 604 L 9 605 L 9 609 L 10 610 L 10 614 L 11 615 L 11 618 L 12 619 L 12 623 L 13 624 L 13 627 L 14 628 L 14 631 L 15 632 L 15 635 L 16 636 L 16 639 L 17 640 L 17 643 L 18 644 L 18 646 L 19 647 L 19 650 L 20 651 L 20 653 L 21 654 L 21 657 L 22 658 L 22 660 L 23 661 L 23 663 L 24 664 L 24 666 L 25 667 L 25 669 L 26 670 L 26 672 L 27 673 L 27 675 L 28 676 L 28 678 L 29 679 L 29 681 L 30 682 L 30 683 L 31 684 L 31 686 L 32 687 L 32 689 L 33 690 L 33 691 L 34 692 L 34 694 L 35 695 L 35 697 L 36 698 L 36 699 L 37 700 L 37 702 L 38 703 L 38 704 L 39 705 L 39 707 L 40 708 L 40 709 L 41 710 L 41 711 L 42 712 L 42 714 L 43 715 L 43 716 L 44 717 L 44 718 L 45 719 L 45 720 L 46 721 L 46 723 L 47 724 L 47 725 L 48 726 L 48 727 L 49 728 L 49 729 L 50 730 L 50 731 L 51 732 L 51 733 L 52 734 L 52 735 L 53 736 L 53 737 L 54 738 L 54 739 L 55 740 L 55 741 L 56 742 L 56 743 L 57 744 L 57 745 L 58 746 L 58 747 L 59 748 L 59 749 L 61 751 L 61 752 L 62 753 L 62 754 L 63 755 L 63 756 L 64 757 L 64 758 L 66 760 L 66 761 L 67 762 L 67 763 L 68 764 L 68 765 L 70 767 L 70 768 L 72 770 L 72 771 L 73 772 L 73 773 L 75 775 L 75 776 L 76 777 L 76 778 L 78 780 L 78 781 L 80 783 L 80 784 L 82 786 L 82 787 L 84 789 L 84 790 L 86 792 L 86 793 L 88 795 L 88 796 L 90 798 L 90 799 L 93 802 L 93 803 L 95 805 L 95 806 L 98 809 L 98 810 L 101 813 L 101 814 L 104 817 L 104 818 L 107 821 L 107 822 L 111 826 L 111 827 L 116 832 L 116 833 L 121 838 L 121 839 L 128 846 L 128 847 L 140 859 L 140 860 L 143 863 L 144 863 L 145 864 L 145 865 L 147 867 L 148 867 L 149 868 L 149 869 L 150 869 L 151 870 L 151 871 L 152 872 L 153 872 L 169 888 L 170 888 L 177 895 L 178 895 L 183 900 L 184 900 L 188 904 L 189 904 L 193 908 L 194 908 L 197 911 L 198 911 L 201 914 L 202 914 L 205 917 L 206 917 L 209 920 L 210 920 L 213 923 L 214 923 L 216 925 L 217 925 L 219 927 L 220 927 L 222 929 L 223 929 L 225 931 L 226 931 L 228 933 L 229 933 L 231 935 L 232 935 L 234 937 L 235 937 L 237 939 L 238 939 L 239 940 L 240 940 L 242 942 L 243 942 L 244 943 L 245 943 L 247 945 L 248 945 L 249 946 L 250 946 L 252 948 L 253 948 L 255 950 L 256 950 L 257 951 L 258 951 L 259 952 L 260 952 L 261 953 L 262 953 L 264 955 L 265 955 L 266 956 L 267 956 L 268 957 L 269 957 L 270 958 L 271 958 L 272 959 L 273 959 L 274 960 L 275 960 L 276 961 L 277 961 L 278 962 L 279 962 L 280 963 L 281 963 L 282 964 L 283 964 L 284 965 L 285 965 L 286 966 L 287 966 L 288 967 L 289 967 L 290 968 L 291 968 L 292 969 L 293 969 L 294 970 L 295 970 L 296 971 L 298 971 L 300 973 L 302 973 L 303 974 L 304 974 L 305 975 L 306 975 L 307 976 L 309 976 L 310 977 L 311 977 L 312 978 L 313 978 L 314 979 L 316 979 L 317 980 L 318 980 L 319 981 L 321 981 L 322 982 L 323 982 L 324 983 L 326 983 L 327 984 L 328 984 L 329 985 L 331 985 L 332 986 L 334 986 L 335 987 L 336 987 L 337 988 L 339 988 L 340 989 L 342 989 L 343 990 L 345 990 L 346 991 L 348 991 L 349 992 L 351 992 L 352 993 L 354 993 L 355 994 L 357 994 L 358 995 L 361 995 L 362 996 L 364 996 L 365 997 L 367 997 L 368 998 L 371 998 L 372 999 L 375 999 L 376 1000 L 378 1000 L 379 1001 L 382 1001 L 383 1002 L 385 1002 L 386 1003 L 390 1003 L 391 1004 L 394 1004 L 395 1005 L 399 1005 L 400 1006 L 404 1006 L 405 1007 L 408 1007 L 409 1008 L 413 1008 L 414 1009 L 418 1009 L 419 1010 L 422 1010 L 423 1011 L 428 1011 L 429 1012 L 434 1012 L 435 1013 L 441 1013 L 442 1014 L 448 1014 L 449 1015 L 458 1015 L 459 1016 L 468 1016 L 469 1017 L 481 1017 L 482 1018 L 513 1018 L 514 1019 L 515 1019 L 516 1018 L 543 1018 L 544 1017 L 555 1017 L 556 1016 L 566 1016 L 567 1015 L 574 1015 L 575 1014 L 582 1014 L 583 1013 L 589 1013 L 590 1012 L 596 1012 L 597 1011 L 601 1011 L 602 1010 L 606 1010 L 607 1009 L 611 1009 L 612 1008 L 616 1008 L 617 1007 L 621 1007 L 622 1006 L 625 1006 L 626 1005 L 630 1005 L 631 1004 L 634 1004 L 635 1003 L 638 1003 L 639 1002 L 642 1002 L 643 1001 L 646 1001 L 647 1000 L 649 1000 L 650 999 L 653 999 L 654 998 L 656 998 L 657 997 L 660 997 L 661 996 L 663 996 L 664 995 L 666 995 L 667 994 L 669 994 L 670 993 L 672 993 L 673 992 L 675 992 L 676 991 L 678 991 L 679 990 L 681 990 L 682 989 L 684 989 L 685 988 L 687 988 L 688 987 L 689 987 L 690 986 L 692 986 L 693 985 L 695 985 L 696 984 L 697 984 L 698 983 L 700 983 L 701 982 L 702 982 L 703 981 L 705 981 L 706 980 L 707 980 L 708 979 L 709 979 L 710 978 L 712 978 L 713 977 L 714 977 L 715 976 L 716 976 L 717 975 L 719 975 L 720 974 L 721 974 L 722 973 L 723 973 L 724 972 L 725 972 L 726 971 L 727 971 L 728 970 L 729 970 L 730 969 L 732 969 L 733 968 L 734 968 L 735 967 L 736 967 L 737 966 L 738 966 L 739 965 L 740 965 L 741 964 L 742 964 L 743 963 L 744 963 L 745 962 L 746 962 L 747 961 L 748 961 L 750 959 L 751 959 L 752 958 L 753 958 L 754 957 L 755 957 L 756 956 L 757 956 L 758 955 L 759 955 L 761 953 L 762 953 L 763 952 L 764 952 L 765 951 L 766 951 L 768 949 L 769 949 L 770 948 L 771 948 L 772 947 L 773 947 L 775 945 L 776 945 L 778 943 L 779 943 L 780 942 L 781 942 L 783 940 L 784 940 L 785 939 L 786 939 L 788 937 L 789 937 L 791 935 L 792 935 L 794 933 L 795 933 L 797 931 L 798 931 L 800 929 L 801 929 L 803 927 L 804 927 L 806 925 L 807 925 L 810 922 L 811 922 L 814 919 L 815 919 L 817 917 L 818 917 L 821 914 L 822 914 L 825 911 L 826 911 L 830 907 L 831 907 L 836 902 L 837 902 L 841 898 L 842 898 L 847 893 L 848 893 L 856 885 L 857 885 L 893 849 L 893 848 L 901 840 L 901 839 L 906 834 L 906 833 L 910 829 L 910 828 L 914 824 L 914 823 L 918 819 L 918 818 L 922 814 L 922 813 L 925 810 L 925 809 L 927 807 L 927 806 L 930 803 L 930 802 L 932 800 L 932 799 L 934 797 L 934 796 L 936 794 L 936 793 L 939 790 L 939 789 L 941 787 L 941 786 L 942 785 L 942 784 L 944 782 L 944 781 L 946 779 L 946 778 L 948 776 L 948 775 L 949 774 L 949 773 L 951 771 L 951 770 L 952 769 L 952 768 L 954 766 L 954 765 L 955 764 L 955 763 L 957 761 L 957 760 L 958 759 L 958 758 L 959 757 L 959 756 L 960 755 L 960 754 L 961 753 L 961 752 L 963 750 L 963 749 L 964 748 L 964 747 L 965 746 L 965 745 L 966 744 L 966 743 L 967 742 L 967 741 L 968 740 L 968 739 L 969 738 L 969 737 L 970 736 L 970 735 L 971 734 L 971 733 L 972 732 L 972 731 L 973 730 L 973 729 L 974 728 L 974 727 L 975 726 L 975 725 L 976 724 L 976 723 L 977 722 L 977 720 L 978 719 L 978 718 L 979 717 L 979 716 L 980 715 L 980 714 L 981 713 L 981 712 L 982 711 L 982 709 L 983 708 L 983 707 L 984 706 L 984 705 L 985 704 L 985 702 L 986 701 L 986 700 L 987 699 L 987 697 L 988 696 L 988 695 L 989 694 L 989 692 L 990 691 L 990 689 L 991 688 L 991 687 L 992 686 L 992 684 L 993 683 L 993 681 L 994 680 L 994 678 L 995 677 L 995 676 L 996 675 L 996 673 L 997 672 L 997 670 L 998 669 L 998 666 L 999 665 L 999 663 L 1000 662 L 1000 660 L 1001 659 L 1001 657 L 1002 656 L 1002 653 L 1003 652 L 1003 650 L 1004 649 L 1004 646 L 1005 645 L 1005 643 L 1006 642 L 1006 640 L 1007 639 L 1007 635 L 1008 634 L 1008 631 L 1009 630 L 1009 627 L 1010 626 L 1010 623 L 1011 622 L 1011 618 L 1012 617 L 1012 614 L 1013 613 L 1013 609 L 1014 608 L 1014 604 L 1015 603 L 1015 598 L 1016 597 L 1016 592 L 1017 591 L 1017 586 L 1018 585 L 1018 580 L 1019 579 L 1019 572 L 1020 571 L 1020 563 L 1021 562 L 1021 553 L 1022 552 L 1022 543 L 1023 542 L 1023 482 L 1022 481 L 1022 469 L 1021 468 L 1021 458 L 1020 457 L 1020 448 L 1019 447 L 1019 441 L 1018 440 L 1018 435 L 1017 434 L 1017 428 L 1016 427 L 1016 421 L 1015 420 L 1015 416 L 1014 415 L 1014 411 L 1013 410 L 1013 406 L 1012 405 L 1012 401 L 1011 400 L 1011 396 L 1010 395 L 1010 391 L 1009 390 L 1009 387 L 1008 386 L 1008 383 L 1007 382 L 1007 379 L 1006 378 L 1006 375 L 1005 374 L 1005 371 L 1004 370 L 1004 368 L 1003 367 L 1003 364 L 1002 363 L 1002 361 L 1001 360 L 1001 358 L 1000 357 L 1000 354 L 999 353 L 999 351 L 998 350 L 998 348 L 997 347 L 997 345 L 996 344 L 996 342 L 995 341 L 995 339 L 994 338 L 994 336 L 993 335 L 993 333 L 992 332 L 992 330 L 991 329 L 991 328 L 990 327 L 990 325 L 989 324 L 989 323 L 988 322 L 988 320 L 987 319 L 987 318 L 986 317 L 986 315 L 985 314 L 985 313 L 984 312 L 984 310 L 983 309 L 983 308 L 982 307 L 982 305 L 981 304 L 981 303 L 980 302 L 980 301 L 979 300 L 979 299 L 978 298 L 978 296 L 977 295 L 977 294 L 976 293 L 976 292 L 975 291 L 975 290 L 974 289 L 974 288 L 973 287 L 973 286 L 972 285 L 972 284 L 971 283 L 971 282 L 970 281 L 970 280 L 969 279 L 969 278 L 968 277 L 968 276 L 967 275 L 967 274 L 966 273 L 966 272 L 965 271 L 965 270 L 964 269 L 964 268 L 963 267 L 963 266 L 961 264 L 961 263 L 960 262 L 960 261 L 959 260 L 959 259 L 958 258 L 958 257 L 956 255 L 956 254 L 955 253 L 955 252 L 954 251 L 954 250 L 952 248 L 952 247 L 950 245 L 950 244 L 949 243 L 949 242 L 947 240 L 947 239 L 945 237 L 945 236 L 944 235 L 944 234 L 942 232 L 942 231 L 940 229 L 940 228 L 938 226 L 938 225 L 936 223 L 936 222 L 933 219 L 933 218 L 931 216 L 931 215 L 929 213 L 929 212 L 926 209 L 926 208 L 923 205 L 923 204 L 919 200 L 919 199 L 916 196 L 916 195 L 912 191 L 912 190 L 907 185 L 907 184 L 902 179 L 902 178 L 894 170 L 894 169 L 882 157 L 882 156 L 881 156 L 880 155 L 880 154 L 874 148 L 873 148 L 872 147 L 872 146 L 871 146 L 856 131 L 855 131 L 847 123 L 846 123 L 841 118 L 840 118 L 836 114 L 835 114 L 831 110 L 830 110 L 827 107 L 826 107 L 822 103 L 821 103 L 818 100 L 817 100 L 815 98 L 814 98 L 811 95 L 810 95 L 807 92 L 806 92 L 804 90 L 803 90 L 801 88 L 800 88 L 798 86 L 797 86 L 795 84 L 794 84 L 792 82 L 791 82 L 789 80 L 788 80 L 786 78 L 785 78 L 783 76 L 782 76 L 781 75 L 780 75 L 778 73 L 777 73 L 775 71 L 774 71 L 773 70 L 772 70 L 771 69 L 770 69 L 768 67 L 767 67 L 766 66 L 765 66 L 763 64 L 762 64 L 761 63 L 760 63 L 759 62 L 758 62 L 757 61 L 756 61 L 754 59 L 753 59 L 752 58 L 751 58 L 750 57 L 749 57 L 748 56 L 747 56 L 746 55 L 745 55 L 744 54 L 743 54 L 742 53 L 741 53 L 740 52 L 739 52 L 738 51 L 737 51 L 736 50 L 735 50 L 734 49 L 733 49 L 732 48 L 731 48 L 730 47 L 729 47 L 728 46 L 726 46 L 725 45 L 724 45 L 723 44 L 722 44 L 721 43 L 720 43 L 719 42 L 717 42 L 716 41 L 715 41 L 714 40 L 713 40 L 712 39 L 710 39 L 709 38 L 708 38 L 707 37 L 705 37 L 704 36 L 703 36 L 702 35 L 701 35 L 700 34 L 698 34 L 697 33 L 695 33 L 694 32 L 693 32 L 692 31 L 690 31 L 689 30 L 687 30 L 686 29 L 684 29 L 683 28 L 681 28 L 680 27 L 679 27 L 678 26 L 676 26 L 675 25 L 673 25 L 672 24 L 670 24 L 669 23 L 667 23 L 666 22 L 663 22 L 662 21 L 660 21 L 659 20 L 657 20 L 656 19 L 653 19 L 652 18 L 650 18 L 649 17 L 646 17 L 645 16 L 643 16 L 642 15 L 639 15 L 638 14 L 635 14 L 634 13 L 631 13 L 630 12 L 626 12 L 625 11 L 622 11 L 621 10 L 617 10 L 616 9 L 613 9 L 612 8 L 607 8 L 606 7 L 601 7 L 600 6 L 595 6 L 594 5 L 588 5 L 587 4 L 580 4 L 579 3 L 572 3 L 571 2 L 562 2 L 561 1 L 552 1 L 551 0 Z" style="paint-order: stroke; fill-opacity: 0.19; fill: url(&quot;#color-1&quot;);"/>
  </g>
  <text style="fill: url(&quot;#color-1&quot;); fill-rule: evenodd; font-family: &quot;Bauhaus 93&quot;; font-size: 59px; text-anchor: middle; white-space: pre;" transform="matrix(1, 0, 0, 1, -188.286471, -185.122012)"><tspan x="434.148" y="368.837" dy="1em">​</tspan><tspan>    Hachodromo </tspan><tspan x="434.148" dy="1em">​</tspan><tspan>App</tspan><tspan x="434.148" dy="1em">​</tspan><tspan>  </tspan></text>
</svg>