<?xml version="1.0" standalone="no"?>
<!DOCTYPE svg PUBLIC "-//W3C//DTD SVG 20010904//EN"
 "http://www.w3.org/TR/2001/REC-SVG-20010904/DTD/svg10.dtd">
<svg version="1.0" xmlns="http://www.w3.org/2000/svg"
 width="1536.000000pt" height="1536.000000pt" viewBox="0 0 1536.000000 1536.000000"
 preserveAspectRatio="xMidYMid meet">

<g transform="translate(0.000000,1536.000000) scale(0.100000,-0.100000)"
fill="#000000" stroke="none">
<path d="M7280 15339 c-1390 -68 -2757 -528 -3915 -1317 -883 -602 -1648
-1401 -2212 -2312 -1442 -2327 -1524 -5278 -215 -7685 913 -1679 2426 -2963
4227 -3588 591 -205 1142 -323 1835 -394 222 -22 1070 -26 1295 -5 473 44 860
108 1260 209 1611 406 3037 1321 4096 2628 458 565 859 1245 1136 1930 254
629 422 1281 502 1955 42 345 46 435 46 935 0 503 -5 596 -51 960 -257 2042
-1346 3914 -2996 5153 -1143 858 -2465 1372 -3878 1507 -333 32 -781 41 -1130
24z m988 -274 c666 -57 1261 -183 1872 -398 312 -110 528 -202 860 -369 1716
-859 3036 -2363 3671 -4182 208 -595 329 -1173 391 -1876 17 -196 17 -927 0
-1120 -95 -1050 -332 -1897 -779 -2783 -1020 -2024 -2930 -3477 -5154 -3921
-1073 -214 -2174 -189 -3234 76 -1923 479 -3559 1691 -4577 3389 -532 886
-880 1909 -1002 2944 -62 520 -62 1195 0 1705 128 1067 473 2075 1022 2985
845 1403 2132 2483 3666 3076 681 264 1431 432 2141 479 88 6 183 12 210 14
117 9 743 -4 913 -19z"/>
<path d="M7395 14814 c-576 -35 -938 -85 -1393 -194 -1034 -249 -2018 -739
-2847 -1419 -342 -281 -715 -654 -996 -996 -802 -977 -1328 -2148 -1528 -3397
-62 -382 -86 -704 -85 -1133 1 -734 96 -1385 303 -2065 643 -2118 2245 -3828
4316 -4608 565 -212 1147 -350 1760 -416 502 -54 1177 -46 1675 20 1549 204
2958 890 4074 1984 1012 992 1707 2262 1990 3636 97 473 135 824 143 1324 9
575 -29 1023 -133 1540 -309 1541 -1123 2939 -2314 3976 -1151 1003 -2577
1602 -4110 1729 -176 15 -727 27 -855 19z m905 -644 c235 -22 331 -44 450
-103 218 -107 321 -300 307 -577 -20 -391 -223 -600 -611 -626 -103 -7 -511
27 -636 52 -283 59 -462 211 -516 440 -23 97 -15 310 16 414 70 244 246 385
522 420 87 10 193 6 468 -20z m-1404 -125 c17 -72 48 -200 69 -285 20 -85 70
-290 110 -455 40 -165 76 -316 80 -335 l6 -35 -136 -33 c-76 -18 -138 -32
-140 -30 -1 2 -28 111 -60 243 -32 132 -60 245 -64 251 -4 7 -55 -2 -156 -27
-82 -20 -277 -67 -432 -105 -220 -53 -283 -72 -283 -84 1 -8 27 -121 59 -250
32 -129 55 -238 52 -242 -10 -12 -264 -69 -271 -61 -4 5 -22 69 -40 143 -17
74 -60 252 -95 395 -117 479 -165 681 -165 691 0 8 270 78 275 72 1 -2 30
-115 63 -251 33 -137 62 -250 64 -252 2 -2 64 11 138 30 74 18 269 65 433 105
208 51 297 76 297 86 0 7 -24 113 -54 236 -30 123 -56 232 -58 242 -3 17 13
24 122 52 69 18 132 32 140 31 9 -2 24 -43 46 -132z m3114 -279 c342 -146 443
-196 530 -264 174 -137 258 -327 230 -522 -24 -170 -116 -356 -227 -460 -106
-100 -215 -140 -379 -140 -157 0 -238 26 -685 215 -217 93 -398 171 -403 176
-7 6 439 1071 485 1161 11 21 -23 34 449 -166z m-4952 -206 c28 -49 52 -93 52
-98 0 -5 -123 -80 -272 -167 -310 -179 -378 -225 -438 -292 -62 -69 -84 -124
-84 -208 -1 -84 21 -153 78 -248 81 -136 179 -208 291 -215 105 -7 206 29 390
138 215 127 465 270 472 270 13 -1 115 -180 110 -193 -5 -13 -540 -325 -653
-381 -97 -48 -180 -74 -271 -87 -208 -29 -387 44 -517 211 -272 350 -243 703
80 947 71 54 677 411 699 412 6 1 34 -39 63 -89z m6710 -817 c230 -196 436
-376 458 -401 62 -66 96 -143 102 -228 6 -91 -13 -150 -78 -242 -128 -182
-293 -246 -461 -178 -35 14 -64 24 -65 23 -3 -3 -84 -514 -84 -527 0 -6 -4
-10 -9 -10 -13 0 -235 191 -239 205 -1 6 18 122 43 258 25 135 45 254 44 264
0 14 -348 323 -428 380 -15 12 -34 -7 -167 -162 -82 -96 -152 -175 -156 -175
-4 0 -55 41 -113 91 l-106 92 24 26 c27 29 736 858 776 908 14 17 30 32 34 32
5 1 196 -160 425 -356z m-8068 -545 c256 -93 540 -197 633 -230 l167 -60 -89
-97 c-137 -149 -105 -139 -266 -80 l-139 51 -135 -139 c-74 -76 -189 -193
-255 -260 l-120 -122 52 -131 c29 -72 52 -136 52 -143 0 -14 -207 -224 -213
-216 -2 2 -74 182 -160 399 -85 217 -198 504 -251 638 -53 134 -96 249 -96
255 0 7 68 83 150 169 145 151 152 157 178 147 15 -6 236 -87 492 -181z m4263
132 c1025 -62 1991 -455 2767 -1128 135 -117 404 -389 511 -517 539 -645 894
-1406 1033 -2210 53 -312 61 -413 60 -810 0 -413 -11 -538 -79 -890 -132 -687
-428 -1348 -853 -1908 -1021 -1347 -2655 -2032 -4331 -1816 -1342 173 -2546
930 -3297 2074 -279 425 -491 907 -613 1393 -101 403 -142 738 -142 1157 0
251 11 421 42 645 182 1317 922 2494 2034 3237 842 562 1849 834 2868 773z
m4793 -765 c34 -12 83 -34 108 -49 64 -38 175 -144 234 -225 75 -102 272 -435
309 -523 87 -209 93 -379 19 -535 -94 -197 -366 -374 -596 -390 -104 -7 -170
6 -265 52 -152 74 -249 182 -428 479 -187 309 -230 423 -230 596 0 225 109
388 351 526 177 101 345 125 498 69z m-10383 -324 c73 -37 240 -124 372 -191
425 -217 625 -321 625 -326 0 -14 -122 -244 -129 -244 -5 0 -111 52 -236 116
-124 64 -227 115 -229 113 -1 -2 -94 -182 -205 -398 -161 -315 -199 -397 -189
-407 7 -6 101 -56 208 -110 107 -53 205 -104 217 -111 l22 -15 -62 -124 c-34
-68 -66 -124 -71 -124 -5 0 -100 47 -210 104 -111 57 -336 172 -501 256 -165
84 -328 168 -363 187 l-62 34 60 117 c34 64 65 121 69 125 5 5 111 -44 235
-109 125 -64 231 -113 236 -108 10 12 73 132 259 496 l152 297 -213 108 c-117
59 -221 111 -230 115 -10 4 -18 12 -18 18 0 14 119 250 126 250 3 0 64 -31
137 -69z m11526 -1548 l23 -112 -146 -333 -146 -333 93 -90 c50 -50 170 -165
264 -255 l173 -165 22 -112 c12 -62 19 -115 16 -118 -9 -9 -1241 -255 -1247
-249 -8 7 -60 268 -55 273 3 4 561 119 807 167 l88 18 -173 173 -173 173 -315
-64 c-181 -37 -317 -61 -320 -55 -10 16 -53 259 -47 265 3 3 145 34 317 69
171 34 312 64 314 66 7 10 176 430 176 439 0 6 -10 8 -22 5 -43 -10 -859 -175
-867 -175 -12 0 -64 271 -54 280 4 4 35 12 68 18 78 14 1147 231 1160 236 17
6 22 -6 44 -121z m-11396 -899 c26 -4 37 -11 37 -22 0 -10 -7 -91 -15 -182 -7
-91 -30 -356 -50 -590 -20 -234 -38 -426 -39 -427 -1 -2 -76 4 -167 12 -90 9
-375 33 -633 55 -258 22 -471 41 -472 43 -2 1 2 65 9 142 l12 140 35 -3 c53
-4 866 -72 942 -79 l66 -6 6 54 c4 30 20 214 36 409 16 195 33 381 36 414 l6
58 77 -6 c42 -4 93 -9 114 -12z m11063 -1024 c239 -30 403 -122 498 -279 89
-148 106 -333 62 -661 -34 -245 -59 -363 -96 -457 -107 -266 -303 -394 -585
-380 -216 11 -369 68 -479 179 -168 171 -201 368 -137 810 35 238 56 332 96
428 79 187 222 314 395 349 114 23 141 24 246 11z m-11018 -988 c68 -376 122
-685 120 -687 -2 -2 -143 -29 -313 -60 -171 -32 -452 -83 -625 -115 -173 -32
-316 -57 -317 -56 -4 4 -253 1379 -251 1381 5 4 228 41 228 38 0 -2 39 -214
86 -471 47 -257 91 -500 98 -540 7 -40 16 -75 18 -78 3 -3 66 6 139 19 130 23
134 24 131 48 -1 13 -41 234 -87 490 -47 256 -85 470 -85 476 0 5 50 19 111
30 86 15 112 17 116 7 2 -6 44 -229 92 -493 49 -265 90 -484 92 -486 3 -2 47
4 99 14 52 10 116 22 143 25 26 4 47 11 47 17 0 5 -29 168 -65 362 -35 193
-67 366 -70 382 -3 17 -16 91 -30 165 -38 205 -44 182 55 201 47 9 98 16 114
16 l29 -2 125 -683z m8272 -3506 c42 -65 49 -81 38 -91 -7 -7 -184 -124 -393
-260 -209 -135 -381 -250 -383 -255 -4 -12 118 -202 128 -198 4 2 166 107 361
233 194 127 356 230 358 230 11 0 110 -160 103 -166 -4 -4 -164 -109 -357
-233 -192 -125 -352 -231 -353 -237 -4 -10 113 -195 129 -204 4 -3 182 108
396 246 213 139 394 252 401 253 13 1 119 -151 111 -158 -33 -26 -988 -639
-997 -640 -14 -1 -607 902 -598 911 9 9 1001 652 1003 650 1 -1 25 -38 53 -81z
m-5630 -298 c294 -187 538 -342 542 -346 4 -4 -56 -106 -133 -227 -77 -121
-143 -226 -148 -233 -6 -10 -33 3 -109 52 -56 37 -102 69 -102 73 0 3 41 71
91 150 50 79 89 146 86 149 -23 23 -273 172 -279 166 -6 -6 -264 -411 -437
-684 -20 -32 -39 -58 -43 -58 -4 0 -50 28 -103 61 -63 41 -94 67 -91 76 3 7
107 174 232 371 125 196 228 362 231 367 2 6 -38 37 -89 70 -51 32 -102 64
-114 72 -20 13 -25 7 -110 -128 -49 -78 -92 -146 -95 -151 -7 -10 -208 112
-209 126 0 8 78 134 257 414 l34 53 27 -17 c15 -10 268 -170 562 -356z m1301
-564 c554 -129 599 -147 662 -263 36 -66 44 -153 23 -244 -40 -172 -131 -263
-273 -275 -35 -2 -63 -6 -63 -7 0 -1 34 -101 75 -221 41 -120 74 -222 73 -225
-2 -3 -62 8 -134 24 l-132 30 -67 221 c-38 122 -69 222 -70 224 -5 6 -486 114
-491 109 -3 -3 -25 -89 -49 -192 -24 -103 -45 -188 -47 -190 -2 -1 -55 10
-118 25 -99 23 -115 30 -113 46 2 20 230 997 239 1027 3 9 11 17 19 17 7 0
217 -48 466 -106z m2878 70 c111 -32 184 -150 185 -294 1 -61 -3 -82 -22 -114
-13 -21 -22 -40 -20 -41 2 -1 21 -12 44 -23 82 -41 135 -135 149 -259 15 -127
-48 -234 -170 -289 -51 -24 -1024 -278 -1032 -270 -5 4 -51 183 -172 661 -51
198 -94 367 -96 376 -4 13 17 22 112 47 219 58 818 210 843 215 55 10 129 6
179 -9z m-1516 -616 c4 -215 7 -460 7 -544 l0 -152 -117 -4 c-65 -3 -121 -2
-125 1 -5 4 -13 1024 -9 1084 1 4 54 7 119 7 l119 0 6 -392z"/>
<path d="M7852 13945 c-35 -8 -83 -26 -107 -39 -118 -70 -184 -228 -172 -412
15 -220 129 -328 382 -362 272 -37 498 -39 589 -5 132 49 226 210 226 390 0
174 -67 297 -194 357 -77 36 -117 44 -346 66 -237 23 -291 24 -378 5z"/>
<path d="M9725 13587 c-7 -18 -79 -185 -160 -371 -80 -186 -144 -340 -143
-341 15 -13 513 -218 558 -230 76 -20 184 -19 244 1 178 61 317 384 238 557
-25 56 -108 142 -174 181 -47 27 -525 236 -541 236 -4 0 -14 -15 -22 -33z"/>
<path d="M11302 12613 c-61 -70 -108 -131 -106 -135 14 -22 584 -505 613 -520
47 -24 76 -23 125 6 42 25 70 57 99 113 43 83 24 109 -257 350 -132 114 -269
231 -303 260 l-61 54 -110 -128z"/>
<path d="M3186 12071 c-5 -8 27 -94 173 -461 21 -52 43 -95 48 -95 12 0 358
354 352 359 -5 4 -557 206 -563 206 -3 0 -7 -4 -10 -9z"/>
<path d="M7255 12054 c-225 -22 -211 -17 -267 -109 -331 -549 -486 -1237 -448
-1990 15 -295 69 -671 97 -682 13 -5 302 65 315 76 4 3 3 24 -2 46 -15 65 -48
281 -62 405 -16 149 -16 593 1 740 64 580 245 1064 541 1445 25 33 49 66 54
73 9 15 -40 15 -229 -4z"/>
<path d="M8008 11959 c-145 -159 -235 -278 -333 -439 -240 -397 -400 -867
-471 -1390 -26 -186 -26 -596 0 -747 14 -83 23 -113 33 -113 12 0 272 63 309
75 7 2 6 27 -4 82 -19 101 -21 446 -3 603 68 607 288 1174 608 1570 71 88 251
265 341 335 54 42 61 50 44 56 -33 13 -274 50 -357 56 l-80 6 -87 -94z"/>
<path d="M6261 11840 c-62 -22 -155 -55 -205 -75 l-92 -37 -32 -116 c-84 -312
-113 -558 -113 -952 0 -311 18 -539 66 -824 40 -239 125 -586 143 -586 11 1
303 108 309 113 2 3 -6 43 -20 89 -79 265 -136 629 -157 1011 -28 490 48 1004
202 1366 10 24 17 45 16 47 -2 1 -54 -15 -117 -36z"/>
<path d="M9105 11762 c-716 -391 -1170 -1032 -1285 -1815 -25 -168 -27 -453
-5 -583 9 -48 18 -90 21 -93 2 -3 77 13 165 34 l160 39 -8 61 c-5 33 -7 157
-7 275 1 191 4 229 28 338 116 548 432 1016 895 1326 120 80 304 180 438 237
l103 44 -67 33 c-91 46 -328 142 -350 142 -10 0 -49 -17 -88 -38z"/>
<path d="M5245 11337 c-66 -45 -148 -103 -182 -129 l-61 -48 -7 -107 c-12
-171 1 -539 24 -689 36 -237 99 -483 170 -668 17 -44 29 -81 27 -84 -2 -2 -36
10 -75 26 -126 53 -245 143 -488 369 -164 152 -318 285 -397 341 l-45 33 -69
-93 c-38 -51 -82 -114 -99 -139 l-31 -45 71 -55 c58 -43 195 -160 253 -214
366 -343 516 -453 720 -530 50 -19 79 -35 71 -38 -8 -3 -62 -11 -119 -18 -132
-15 -318 -7 -603 26 -367 43 -617 44 -780 3 l-50 -13 -67 -200 c-36 -110 -66
-201 -64 -202 1 -1 43 14 94 33 155 58 224 69 432 68 141 0 241 -7 420 -29
272 -33 579 -40 733 -16 48 7 90 11 93 9 9 -9 -94 -155 -154 -219 -160 -172
-348 -267 -871 -444 -375 -127 -513 -182 -651 -263 -89 -52 -194 -128 -234
-171 l-29 -30 6 -208 c7 -226 25 -449 38 -473 6 -10 8 -2 9 26 0 64 36 188 76
264 20 38 63 99 96 135 142 155 330 249 803 400 231 74 427 150 564 219 152
77 242 136 381 255 l51 44 -7 -54 c-39 -319 -148 -568 -331 -760 -147 -154
-282 -243 -682 -448 -157 -81 -326 -173 -376 -204 -191 -122 -334 -254 -425
-394 l-49 -74 16 -52 c56 -191 166 -502 184 -522 5 -5 9 20 9 60 0 138 36 261
108 375 116 182 255 285 681 503 389 198 545 297 702 445 49 47 92 83 94 80 7
-7 -61 -288 -94 -387 -34 -100 -110 -259 -167 -349 -122 -189 -266 -335 -530
-533 -332 -249 -453 -392 -528 -622 l-25 -78 65 -107 c61 -100 193 -289 248
-357 l25 -30 -15 49 c-19 65 -18 235 1 327 31 149 98 265 211 368 33 30 128
106 213 169 322 241 472 393 622 633 87 140 80 139 74 4 -13 -278 -66 -637
-126 -865 -57 -214 -123 -351 -297 -617 -125 -191 -179 -294 -215 -408 -46
-148 -52 -130 76 -242 134 -118 213 -183 221 -183 3 0 3 37 0 83 -9 108 15
224 66 332 21 44 90 159 153 255 160 245 227 376 292 576 48 147 109 436 131
627 3 31 9 57 13 56 3 0 28 -46 55 -101 27 -55 86 -152 131 -217 l83 -117 -13
-155 c-8 -84 -21 -246 -30 -359 -47 -588 -106 -975 -196 -1297 -16 -57 -29
-105 -29 -106 0 -11 303 -148 309 -141 16 18 92 312 130 500 53 266 104 665
127 998 11 164 7 162 100 39 l81 -108 12 -155 c7 -85 19 -234 26 -330 21 -252
43 -549 61 -825 8 -132 18 -258 22 -280 8 -43 8 -43 205 -88 l67 -15 0 37 c0
21 -7 132 -15 247 -8 115 -22 306 -30 424 -26 357 -45 607 -60 771 -70 746 84
1043 595 1151 138 29 539 37 700 14 386 -56 593 -205 679 -487 55 -179 61
-335 27 -719 -25 -288 -30 -350 -61 -785 -33 -467 -45 -648 -43 -650 3 -3 222
48 253 58 20 7 22 22 38 260 24 353 44 606 78 1020 l29 358 75 99 c42 55 79
100 83 100 5 0 16 -91 26 -202 53 -614 115 -984 232 -1384 l15 -53 52 23 c98
44 248 119 252 127 3 4 -6 46 -20 93 -92 320 -153 733 -205 1386 -12 146 -25
303 -29 350 l-8 85 36 53 c122 177 146 215 184 294 23 48 45 87 48 87 4 1 9
-23 13 -51 29 -222 88 -493 146 -668 49 -147 138 -318 270 -520 201 -307 237
-403 226 -593 -6 -112 -15 -109 84 -28 30 25 99 84 153 131 l98 85 -7 40 c-22
137 -90 280 -246 518 -219 335 -288 508 -353 882 -38 224 -86 697 -72 711 2 3
26 -33 53 -78 57 -97 149 -221 237 -321 86 -97 200 -195 406 -349 198 -148
302 -246 350 -330 91 -161 123 -387 76 -546 l-14 -47 25 30 c48 59 182 252
249 359 l68 109 -17 56 c-27 87 -100 229 -155 302 -74 97 -164 178 -391 350
-230 174 -363 300 -462 440 -84 117 -187 316 -228 438 -31 93 -90 330 -90 364
0 13 24 -3 86 -58 183 -163 330 -257 664 -425 485 -244 619 -344 740 -550 55
-94 79 -170 93 -300 l13 -115 51 135 c51 136 125 358 137 417 7 28 1 42 -46
110 -29 43 -93 119 -143 168 -149 148 -265 222 -660 425 -121 62 -240 124
-265 138 -345 193 -551 415 -655 706 -40 112 -71 240 -81 340 l-7 70 74 -63
c153 -130 333 -235 551 -322 57 -23 237 -86 401 -140 427 -142 592 -220 728
-346 117 -109 185 -240 210 -404 7 -43 14 -77 16 -76 10 11 33 369 33 524 l0
183 -72 59 c-174 143 -344 223 -831 387 -510 172 -663 247 -835 408 -73 70
-192 226 -192 254 0 6 13 7 38 2 20 -5 96 -14 167 -21 158 -14 323 -7 615 27
472 55 676 42 913 -60 37 -16 38 -16 33 1 -46 160 -119 377 -132 392 -13 15
-158 33 -304 38 -180 6 -268 0 -580 -38 -208 -25 -506 -30 -620 -11 -88 16
-250 60 -266 73 -17 14 2 103 38 173 99 196 403 344 797 386 120 13 393 16
534 5 53 -4 97 -4 97 0 0 11 -106 180 -167 268 l-54 77 -177 0 c-275 0 -475
-29 -694 -100 -379 -124 -611 -333 -699 -631 -21 -72 -22 -93 -29 -849 -10
-949 -27 -1580 -43 -1596 -7 -6 -112 -97 -235 -203 -123 -106 -221 -198 -220
-203 5 -14 91 -117 99 -117 3 -1 78 62 167 138 88 77 166 142 173 147 30 18
-22 -277 -81 -456 -68 -210 -115 -288 -394 -664 l-170 -230 -18 65 c-55 195
-121 314 -242 435 -154 154 -335 240 -611 289 -216 38 -601 38 -820 0 -360
-63 -617 -232 -744 -490 -40 -82 -91 -230 -91 -266 0 -10 -4 -19 -9 -19 -10 0
-315 407 -401 534 -125 187 -226 486 -247 733 l-6 77 30 -24 c17 -14 95 -81
173 -149 l143 -125 53 60 c30 32 54 62 54 66 0 3 -78 73 -172 154 -179 153
-211 181 -265 230 l-32 29 -11 305 c-6 168 -15 695 -19 1171 l-9 865 -37 63
c-113 193 -233 528 -285 797 -65 337 -67 753 -7 1072 10 50 11 72 3 72 -6 -1
-65 -38 -131 -83z"/>
<path d="M9855 11361 c-494 -199 -884 -511 -1125 -901 -172 -276 -272 -573
-299 -885 -9 -98 -5 -295 5 -295 1 0 74 11 161 25 87 14 162 25 166 25 5 0 5
30 2 68 -13 125 22 345 82 522 122 361 366 674 703 899 218 146 436 241 779
340 22 6 19 11 -45 58 -135 99 -277 193 -293 193 -9 0 -70 -22 -136 -49z"/>
<path d="M10635 10893 c-219 -47 -317 -75 -473 -134 -528 -201 -918 -574
-1051 -1004 -17 -55 -35 -129 -41 -165 -10 -66 -14 -293 -5 -302 4 -4 216 22
301 37 l31 5 6 123 c4 95 11 139 32 202 159 478 694 829 1399 919 65 8 120 17
123 20 9 8 -283 308 -297 305 -3 -1 -14 -3 -25 -6z"/>
<path d="M6470 8573 c-132 -13 -323 -91 -437 -177 -68 -51 -263 -252 -263
-270 0 -11 20 -29 131 -119 l46 -37 54 67 c148 180 331 286 517 300 80 6 84 5
155 -30 45 -23 127 -82 217 -157 80 -67 185 -148 234 -181 49 -32 82 -59 74
-59 -9 0 -85 34 -169 76 -198 98 -276 124 -371 124 -130 0 -229 -41 -313 -131
-45 -49 -109 -169 -121 -227 -6 -28 -4 -29 67 -55 73 -26 89 -26 89 -4 0 32
71 155 108 189 35 32 116 67 128 55 2 -2 -6 -21 -17 -43 -60 -115 47 -259 178
-239 76 11 143 88 143 164 l0 30 113 -55 c72 -35 131 -57 165 -61 l53 -6 -7
83 c-7 79 -6 83 12 75 56 -23 154 -54 190 -60 l41 -6 7 73 c3 40 9 94 12 121
6 42 5 47 -13 47 -42 0 -150 46 -222 94 -42 28 -137 101 -211 162 -174 142
-224 177 -301 214 -95 44 -170 55 -289 43z"/>
<path d="M8699 8570 c-105 -27 -204 -87 -369 -225 -217 -181 -331 -255 -427
-276 -43 -10 -53 -16 -53 -33 0 -35 20 -209 24 -213 7 -8 135 27 190 51 l57
25 -7 -84 -7 -85 25 0 c41 0 118 27 210 73 48 24 90 42 93 39 3 -3 5 -19 5
-36 2 -97 112 -172 212 -145 87 23 143 120 118 204 -7 22 -17 46 -22 53 -37
44 68 14 124 -36 36 -32 84 -116 111 -194 5 -15 13 -14 82 10 73 26 76 28 71
55 -14 70 -76 179 -138 241 -82 81 -146 108 -276 114 -120 5 -178 -12 -387
-118 -170 -85 -228 -104 -130 -42 33 21 107 76 164 123 57 46 143 115 190 153
47 38 110 80 140 94 48 22 63 24 135 19 177 -12 289 -70 459 -239 65 -65 120
-118 123 -118 3 0 43 32 90 71 70 58 83 73 75 88 -21 38 -196 213 -261 260
-66 48 -170 105 -235 129 -108 40 -310 62 -386 42z"/>
<path d="M7250 6616 l0 -83 123 -6 c137 -7 192 -19 210 -48 10 -16 23 -19 93
-19 68 0 84 3 99 20 27 29 76 40 213 47 l122 6 0 85 0 85 -122 -6 c-137 -7
-215 -20 -269 -48 -36 -18 -37 -18 -95 6 -65 26 -190 45 -301 45 l-73 0 0 -84z"/>
<path d="M7575 5884 c-385 -27 -544 -122 -612 -364 -15 -56 -18 -105 -18 -360
0 -254 3 -304 18 -360 42 -149 89 -249 158 -332 26 -31 48 -74 65 -125 74
-225 204 -364 385 -408 150 -37 319 9 432 118 72 69 141 196 173 314 12 47 31
87 62 128 60 80 118 204 150 323 25 93 26 108 26 352 0 211 -3 267 -17 325
-58 228 -178 329 -442 370 -96 15 -297 25 -380 19z m384 -189 c96 -19 186 -62
186 -90 0 -38 -86 -47 -455 -48 -397 -1 -501 12 -483 58 7 19 96 60 163 75
141 31 437 34 589 5z m-371 -797 l2 -248 85 0 85 0 2 248 3 247 140 0 139 0 9
-35 c14 -59 13 -446 -1 -535 -51 -311 -166 -469 -352 -483 -157 -11 -272 79
-343 269 -51 137 -62 223 -62 499 0 140 3 263 7 273 7 16 21 17 145 15 l138
-3 3 -247z"/>
<path d="M7217 3700 c-54 -4 -100 -9 -102 -11 -4 -5 13 -309 21 -355 l4 -31
131 -13 c71 -7 132 -10 134 -8 5 5 -10 267 -21 376 -6 60 12 55 -167 42z"/>
<path d="M7962 3538 c-7 -95 -12 -192 -12 -215 0 -50 -14 -47 150 -30 l115 12
7 65 c3 36 9 122 13 191 l8 127 -29 5 c-16 3 -77 9 -135 12 l-105 7 -12 -174z"/>
<path d="M12503 11286 c-137 -45 -250 -133 -302 -238 -41 -80 -43 -179 -7
-281 27 -75 214 -394 283 -481 51 -66 121 -119 182 -141 168 -58 425 59 522
237 31 58 34 70 33 148 0 113 -31 186 -170 412 -123 200 -157 245 -228 297
-98 74 -189 87 -313 47z"/>
<path d="M13330 7462 c-94 -35 -142 -78 -188 -167 -32 -65 -50 -138 -79 -330
-49 -336 -34 -457 73 -561 117 -114 357 -154 517 -85 90 39 169 149 197 277
25 110 62 406 62 494 -1 188 -72 295 -241 362 -77 30 -274 36 -341 10z"/>
<path d="M6170 2134 c-17 -74 -30 -138 -27 -141 12 -11 635 -153 673 -153 54
0 88 27 108 87 32 93 14 158 -51 186 -35 16 -627 157 -657 157 -9 0 -24 -44
-46 -136z"/>
<path d="M8848 2207 c-174 -45 -319 -85 -323 -88 -3 -3 7 -56 22 -118 19 -78
32 -111 42 -111 29 0 643 161 673 176 62 32 70 136 15 192 -44 44 -83 39 -429
-51z"/>
<path d="M8970 1782 c-184 -47 -337 -87 -339 -89 -5 -4 49 -227 58 -242 4 -6
153 28 356 80 318 81 353 92 380 119 25 26 30 38 29 78 -1 84 -52 143 -121
141 -15 0 -179 -39 -363 -87z"/>
</g>
</svg>
